# xmcd
#
# Track frame offsets:
#	183
#	13840
#	27143
#	39583
#	53128
#	65133
#	77488
#	91298
#	104405
#	115920
#	128468
#	140850
#	155105
#	169838
#	184108
#
# Disc length: 2638 seconds
# Revision: 4
# Processed by: cddbd v1.5.2PL0 Copyright (c) Steve Scherf et al.
# Submitted via: dBpowerAMP V12.0
#
DISCID=cc0a4c0f
DTITLE=John Lee Hooker - The Detroit Lion
DYEAR=1950
DGENRE=Blues
TTITLE0=Hey, 'S The House Rent Boogie
TTITLE1=I'm In The Mood
TTITLE2=Baby How Can You Do It
TTITLE3=Let's Talk It Over
TTITLE4=Yes, Baby, Baby, Baby
TTITLE5=I Got The Key
TTITLE6=Four Women In My Life
TTITLE7=Do My Baby Think Of Me
TTITLE8=I'm Gonna Git Me A Woman
TTITLE9=It Hurts Me So
TTITLE10=Bluebird, Bluebird, Take A Letter Down South
TTITLE11=Boogie Chillen'
TTITLE12=Hello Baby
TTITLE13=This Is 19 And 52, Babe
TTITLE14=Blues For Abraham Lincoln
EXTD=
EXTT0=
EXTT1=
EXTT2=
EXTT3=
EXTT4=
EXTT5=
EXTT6=
EXTT7=
EXTT8=
EXTT9=
EXTT10=
EXTT11=
EXTT12=
EXTT13=
EXTT14=
PLAYORDER=
